<?xml version="1.0" encoding="UTF-8"?>
<svg width="123.36" height="127.7" fill="none" version="1.1" viewBox="0 0 123.36 127.7" xmlns="http://www.w3.org/2000/svg">
 <clipPath id="a">
  <path d="m0 0h638.83v128h-638.83z"/>
 </clipPath>
 <g transform="matrix(.8 0 0 .8 12.42 12.771)" clip-path="url(#a)" stroke-width="1.0016">
  <g transform="matrix(.81066 0 0 .81066 11.659 12.089)" fill="#004985" stroke-width="1.2355">
   <path d="m67.3 92.67c-0.7614 0.5637-1.6729 0.8889-2.6192 0.9345-0.9462 0.0456-1.8848-0.1904-2.6969-0.6782-0.8122-0.4878-1.4614-1.2054-1.8657-2.0622s-0.5454-1.8142-0.4056-2.7512c0.1399-0.9369 0.5544-1.8114 1.1913-2.5128 0.6368-0.7014 1.4673-1.1982 2.3865-1.4276 0.9192-0.2293 1.8857-0.181 2.7774 0.139 0.8917 0.3199 1.6686 0.8971 2.2322 1.6585 0.7482 1.0238 1.0627 2.3012 0.8755 3.5553s-0.861 2.384-1.8755 3.1447z"/>
   <path d="m78.48 91.16c-0.6089 0.4503-1.3377 0.7099-2.0941 0.7461-0.7565 0.0361-1.5067-0.1528-2.1558-0.5429-0.6492-0.3901-1.168-0.9639-1.4911-1.6488-0.3231-0.685-0.4359-1.4503-0.3241-2.1994 0.1118-0.749 0.4431-1.448 0.9521-2.0088 0.5091-0.5608 1.1729-0.958 1.9076-1.1416 0.7348-0.1835 1.5075-0.1451 2.2204 0.1103 0.7129 0.2555 1.3341 0.7166 1.785 1.3251 0.595 0.8203 0.8444 1.8412 0.6948 2.8434-0.1495 1.0022-0.6862 1.9058-1.4948 2.5166z"/>
   <path d="m86.65 83.07c-0.6089 0.4502-1.3377 0.7099-2.0942 0.746-0.7564 0.0362-1.5066-0.1527-2.1557-0.5428-0.6492-0.3901-1.1681-0.9639-1.4912-1.6488-0.323-0.685-0.4358-1.4503-0.324-2.1994 0.1118-0.749 0.4431-1.4481 0.9521-2.0088 0.5091-0.5608 1.1729-0.958 1.9076-1.1416 0.7348-0.1836 1.5074-0.1452 2.2204 0.1103 0.7129 0.2555 1.3341 0.7166 1.785 1.3251 0.5777 0.8261 0.8167 1.8423 0.6679 2.8394-0.1488 0.997-0.6741 1.8991-1.4679 2.5206z"/>
   <path d="m54.66 72.67c-0.6845 0.5454-1.4738 0.9442-2.319 1.1715-0.8452 0.2274-1.7281 0.2784-2.5938 0.1499s-1.6957-0.4338-2.4385-0.8968c-0.7427-0.463-1.3822-1.0739-1.8787-1.7946-0.5572-0.6912-0.968-1.4885-1.2076-2.3434-0.2395-0.8549-0.3027-1.7496-0.1858-2.6297s0.4115-1.7273 0.8659-2.49c0.4545-0.7627 1.0592-1.4251 1.7775-1.9469 0.7148-0.5433 1.5312-0.9381 2.4009-1.1611s1.7753-0.2697 2.6634-0.1374 1.7407 0.441 2.5076 0.9079c0.767 0.4669 1.4327 1.0825 1.9581 1.8106 0.534 0.7085 0.9184 1.5181 1.13 2.3797 0.2117 0.8616 0.2461 1.7572 0.1011 2.6325-0.1449 0.8753-0.4662 1.712-0.9443 2.4594-0.478 0.7474-1.1029 1.3898-1.8368 1.8884z"/>
   <path d="m63.9 59.41c-0.7199 0.5777-1.5509 1.0012-2.4414 1.2441-0.8905 0.2428-1.8215 0.2999-2.735 0.1677-0.9135-0.1323-1.7901-0.451-2.5751-0.9365-0.7851-0.4854-1.462-1.1271-1.9885-1.8853-0.5995-0.7311-1.0427-1.5774-1.302-2.4867-0.2593-0.9092-0.3293-1.862-0.2056-2.7994 0.1238-0.9374 0.4386-1.8394 0.9249-2.6502 0.4864-0.8108 1.134-1.5132 1.9027-2.0637 0.7545-0.574 1.6162-0.9912 2.5344-1.2268 0.9183-0.2357 1.8744-0.2851 2.812-0.1453 0.9377 0.1398 1.8378 0.466 2.6474 0.9593 0.8095 0.4932 1.5121 1.1436 2.0662 1.9128 0.5626 0.7485 0.9675 1.6033 1.1901 2.5128 0.2226 0.9094 0.2583 1.8546 0.105 2.7783-0.1534 0.9237-0.4925 1.8066-0.997 2.5954s-1.1638 1.467-1.9381 1.9935z"/>
   <path d="m57.05 86.4c-0.5877 0.4663-1.2651 0.8068-1.99 1.0001-0.7248 0.1934-1.4817 0.2356-2.2236 0.124s-1.4529-0.3747-2.0888-0.7727c-0.6359-0.3981-1.1831-0.9228-1.6076-1.5414-0.4691-0.5898-0.8142-1.2683-1.0148-1.9948-0.2006-0.7264-0.2525-1.4859-0.1526-2.2329 0.1-0.7469 0.3496-1.4661 0.7341-2.1143 0.3844-0.6482 0.8957-1.2121 1.5033-1.658 0.6125-0.4669 1.3124-0.8062 2.0583-0.9979 0.7459-0.1918 1.5227-0.2319 2.2844-0.1182 0.7618 0.1138 1.4929 0.3791 2.1503 0.7804 0.6574 0.4012 1.2276 0.9303 1.677 1.5557 0.4545 0.6065 0.7814 1.2989 0.9609 2.0352 0.1796 0.7363 0.2081 1.5014 0.0838 2.2491-0.1243 0.7476-0.3988 1.4623-0.807 2.101-0.4081 0.6386-0.9414 1.1879-1.5677 1.6147z"/>
   <path d="m88.18 71.55c-0.456 0.3395-1.0025 0.5359-1.5703 0.5643-0.5678 0.0285-1.1312-0.1123-1.6188-0.4045-0.4876-0.2923-0.8775-0.7227-1.1202-1.2368-0.2426-0.5141-0.3271-1.0886-0.2428-1.6508s0.3337-1.0867 0.7165-1.5069c0.3828-0.4203 0.8818-0.7174 1.4337-0.8537s1.1319-0.1056 1.6663 0.0882 0.9993 0.5419 1.3356 1.0002c0.4169 0.6215 0.5865 1.3763 0.4755 2.1163-0.111 0.7401-0.4946 1.4119-1.0755 1.8837z"/>
   <path d="m84.51 61.76c-0.3804 0.2848-0.8368 0.4503-1.3113 0.4754-0.4745 0.0252-0.9458-0.0911-1.3542-0.334-0.4084-0.243-0.7354-0.6017-0.9397-1.0307-0.2043-0.4291-0.2767-0.9091-0.2079-1.3793 0.0688-0.4701 0.2756-0.9093 0.5942-1.2619 0.3186-0.3525 0.7347-0.6025 1.1956-0.7183 0.4608-0.1159 0.9457-0.0923 1.3931 0.0678 0.4475 0.16 0.8373 0.4492 1.1202 0.831 0.358 0.5166 0.5065 1.1498 0.4156 1.7716-0.091 0.6219-0.4146 1.186-0.9056 1.5784z"/>
   <path d="m76.18 55.06c-0.3815 0.2821-0.8381 0.4449-1.312 0.4676-0.474 0.0228-0.9441-0.0954-1.3508-0.3397-0.4068-0.2443-0.732-0.6037-0.9346-1.0328s-0.2735-0.9086-0.2036-1.3779c0.0698-0.4694 0.2772-0.9075 0.596-1.259 0.3187-0.3515 0.7345-0.6006 1.1948-0.7159s0.9444-0.0915 1.3912 0.0683c0.4468 0.1597 0.8362 0.4484 1.119 0.8294 0.3599 0.5185 0.5085 1.1547 0.4156 1.779s-0.4204 1.1897-0.9156 1.581z"/>
   <path d="m74.26 111.05c-0.7144 0.261-1.4746 0.373-2.234 0.33-0.7593-0.044-1.5017-0.242-2.1816-0.583-0.68-0.341-1.283-0.817-1.7721-1.4-0.4892-0.582-0.8541-1.258-1.0723-1.987-0.278-0.725-0.4053-1.498-0.3743-2.274 0.0311-0.775 0.2199-1.536 0.555-2.236 0.335-0.7 0.8093-1.325 1.3937-1.835 0.5845-0.511 1.2669-0.897 2.0056-1.135 0.7407-0.2607 1.5261-0.3701 2.3098-0.3218s1.5498 0.2534 2.2528 0.6028c0.7031 0.35 1.3288 0.837 1.8402 1.433 0.5115 0.596 0.8981 1.288 1.1372 2.036 0.2531 0.733 0.3547 1.51 0.2986 2.284-0.056 0.774-0.2687 1.528-0.6249 2.217s-0.8487 1.299-1.4475 1.792c-0.5989 0.493-1.2916 0.86-2.0362 1.077z"/>
   <path d="m102.73 78.23c-0.563 0.192-1.17 0.2124-1.744 0.0587-0.575-0.1537-1.0904-0.4746-1.482-0.9221-0.3917-0.4474-0.6415-1.001-0.7179-1.5907-0.0763-0.5897 0.0243-1.1888 0.2891-1.7212s0.6818-0.9741 1.1978-1.269c0.517-0.2949 1.109-0.4297 1.702-0.3874 0.593 0.0424 1.16 0.26 1.629 0.6253 0.47 0.3653 0.82 0.8618 1.006 1.4264 0.131 0.3713 0.186 0.7651 0.162 1.1581-0.024 0.3931-0.127 0.7773-0.302 1.1298-0.175 0.3526-0.42 0.6663-0.719 0.9226-0.298 0.2563-0.646 0.45-1.021 0.5695z"/>
   <path d="m89.5 104.14c-0.8977 0.305-1.8657 0.337-2.7815 0.091-0.9157-0.245-1.738-0.757-2.3627-1.47-0.6247-0.714-1.0236-1.596-1.1464-2.536-0.1227-0.9405 0.0363-1.8959 0.457-2.7456 0.4206-0.8496 1.0839-1.5554 1.9059-2.0278 0.8221-0.4724 1.7658-0.6903 2.7117-0.626s1.8515 0.4079 2.602 0.9872c0.7505 0.5794 1.3122 1.3684 1.614 2.2672 0.2095 0.5944 0.2978 1.2247 0.2597 1.8538-0.038 0.6292-0.2017 1.2442-0.4813 1.8092s-0.6695 1.068-1.1467 1.479c-0.4772 0.412-1.032 0.724-1.6317 0.918z"/>
   <path d="m99.16 91.78c-0.7181 0.2388-1.4908 0.2595-2.2206 0.0595-0.7299-0.1999-1.3841-0.6116-1.8802-1.183-0.4961-0.5715-0.8118-1.2771-0.9072-2.0278-0.0955-0.7507 0.0336-1.5128 0.3709-2.1902s0.8678-1.2397 1.5243-1.6159c0.6566-0.3763 1.4099-0.5496 2.1649-0.498 0.755 0.0515 1.4778 0.3255 2.0769 0.7874 0.6 0.4619 1.049 1.0911 1.291 1.808 0.161 0.4779 0.227 0.9831 0.193 1.4864-0.035 0.5033-0.168 0.9949-0.393 1.4465-0.225 0.4515-0.537 0.8543-0.918 1.185s-0.8233 0.5829-1.302 0.7421z"/>
   <path d="m56.14 109.57c-0.8319 0.312-1.7192 0.45-2.6066 0.404-0.8874-0.047-1.7557-0.275-2.5507-0.672-0.7949-0.397-1.4994-0.954-2.0694-1.636-0.57-0.681-0.9933-1.473-1.2433-2.326-0.3205-0.84-0.4667-1.737-0.4299-2.635 0.0369-0.898 0.2561-1.78 0.6442-2.591 0.3882-0.8106 0.9373-1.5342 1.6139-2.1263s1.4665-1.0405 2.3218-1.3177c0.8576-0.3003 1.7666-0.4261 2.6735-0.3702s1.7935 0.2926 2.6077 0.6959c0.8142 0.4034 1.5396 0.9654 2.1336 1.653 0.5939 0.6877 1.0445 1.4873 1.3252 2.3513 0.2917 0.85 0.4081 1.75 0.342 2.647-0.066 0.896-0.313 1.77-0.7261 2.568s-0.9838 1.504-1.6774 2.076c-0.6937 0.571-1.496 0.996-2.3585 1.249z"/>
   <path d="m41.36 99.27c-0.9375 0.3499-1.9369 0.5033-2.9362 0.4507-0.9993-0.0527-1.9771-0.3102-2.8727-0.7565-0.8955-0.4464-1.6898-1.0722-2.3334-1.8384-0.6435-0.7662-1.1227-1.6566-1.4077-2.6158-0.3597-0.9483-0.523-1.9597-0.4801-2.973s0.2911-2.0074 0.7297-2.9218c0.4385-0.9145 1.0582-1.7304 1.8215-2.3983 0.7633-0.6678 1.6542-1.1737 2.6189-1.4869 0.9684-0.3386 1.9948-0.4798 3.0187-0.4152 1.0238 0.0646 2.0244 0.3337 2.9425 0.7914 0.9182 0.4577 1.7353 1.0946 2.4032 1.8733s1.1731 1.6834 1.4856 2.6605c0.3299 0.9596 0.4615 1.9762 0.3866 2.9882-0.0749 1.0119-0.3546 1.9981-0.8222 2.8987-0.4676 0.9005-1.1133 1.6967-1.8979 2.3402-0.7846 0.6434-1.6918 1.1207-2.6665 1.4029z"/>
   <path d="m34.33 80.49c-0.9823 0.3714-2.0309 0.5353-3.0797 0.4817-1.0487-0.0537-2.0751-0.3238-3.0144-0.7935-0.9393-0.4696-1.7712-1.1286-2.4434-1.9354-0.6722-0.8069-1.1701-1.7441-1.4625-2.7528-0.3755-0.9896-0.5462-2.0451-0.5018-3.1026 0.0445-1.0575 0.3031-2.095 0.7603-3.0496s1.1035-1.8064 1.8996-2.5039 1.7255-1.2261 2.7319-1.5539c1.0115-0.357 2.0845-0.507 3.1552-0.441 1.0706 0.066 2.117 0.3467 3.077 0.8253s1.8139 1.1453 2.511 1.9606 1.2232 1.7625 1.5468 2.7851c0.3376 0.9979 0.4698 2.0537 0.3887 3.1039-0.0811 1.0503-0.3738 2.0733-0.8605 3.0075s-1.1574 1.7603-1.9717 2.4286c-0.8142 0.6683-1.7553 1.1649-2.7665 1.46z"/>
   <path d="m37.11 60.48c-1.0185 0.3841-2.1052 0.5539-3.1923 0.4987s-2.1511-0.3342-3.1254-0.8195c-0.9744-0.4853-1.838-1.1664-2.537-2.0008s-1.2183-1.8041-1.5253-2.8484c-0.3911-1.0295-0.569-2.1277-0.5228-3.2281 0.0462-1.1003 0.3155-2.1798 0.7914-3.1729 0.476-0.9931 1.1488-1.8792 1.9776-2.6044 0.8288-0.7253 1.7963-1.2746 2.8438-1.6146 1.0511-0.3689 2.1654-0.5237 3.2772-0.4553 1.1119 0.0683 2.1988 0.3584 3.1969 0.8532 0.998 0.4948 1.8869 1.1844 2.6144 2.028s1.2788 1.8242 1.6215 2.8841c0.3578 1.0409 0.5005 2.1437 0.4195 3.2414s-0.3841 2.1676-0.8909 3.1447-1.2067 1.8411-2.0573 2.5397c-0.8507 0.6985-1.8343 1.2171-2.8913 1.5242z"/>
   <path d="m72.45 42.18c-1.0546 0.3948-2.1793 0.5682-3.3039 0.5093-1.1246-0.059-2.225-0.3489-3.2327-0.8518-1.0076-0.5028-1.9008-1.2079-2.624-2.0711-0.7232-0.8633-1.2608-1.8662-1.5794-2.9464-0.4038-1.0663-0.5871-2.2035-0.5387-3.3427 0.0483-1.1391 0.3272-2.2567 0.8199-3.285 0.4926-1.0283 1.1887-1.946 2.0462-2.6975s1.8586-1.3213 2.9426-1.6748c1.0906-0.3793 2.246-0.5368 3.3982-0.463 1.1523 0.0737 2.2782 0.3771 3.3115 0.8924 1.0333 0.5152 1.9531 1.2319 2.7054 2.1078 0.7522 0.876 1.3217 1.8935 1.6749 2.9928 0.3687 1.0791 0.5149 2.2217 0.4297 3.3588-0.0851 1.1371-0.3998 2.2452-0.925 3.2574-0.5253 1.0121-1.2501 1.9073-2.1309 2.6316-0.8808 0.7242-1.8992 1.2625-2.9938 1.5822z"/>
   <path d="m51.79 45.66c-1.0382 0.3903-2.1457 0.5624-3.2534 0.5056s-2.1918-0.3414-3.1846-0.8359c-0.9928-0.4946-1.873-1.1884-2.5856-2.0383-0.7127-0.8499-1.2425-1.8376-1.5564-2.9014-0.3991-1.0505-0.5807-2.1711-0.5338-3.2939s0.3213-2.2244 0.8066-3.2379c0.4853-1.0136 1.1714-1.9181 2.0166-2.6586 0.8452-0.7406 1.832-1.3018 2.9006-1.6496 1.0741-0.3745 2.2123-0.5301 3.3474-0.4576 1.1352 0.0724 2.2444 0.3714 3.2621 0.8794 1.0178 0.5079 1.9235 1.2145 2.6639 2.0781 0.7403 0.8636 1.3002 1.8667 1.6466 2.9501 0.3655 1.0619 0.5114 2.187 0.4289 3.307s-0.3917 2.2115-0.9088 3.2084c-0.5172 0.9969-1.2314 1.8783-2.0996 2.5907-0.8681 0.7125-1.8719 1.2411-2.9505 1.5539z"/>
   <path d="m102.63 63.88c-0.563 0.1927-1.171 0.2137-1.746 0.0601-0.575-0.1535-1.091-0.4747-1.483-0.9225s-0.6419-1.0021-0.718-1.5923c-0.0761-0.5903 0.025-1.1898 0.2906-1.7224s0.6836-0.9742 1.2004-1.2685c0.518-0.2944 1.111-0.4283 1.704-0.3846 0.594 0.0436 1.161 0.2628 1.63 0.6297 0.468 0.3668 0.817 0.8648 1.002 1.4305 0.129 0.3707 0.183 0.7636 0.159 1.1555-0.025 0.3918-0.128 0.7748-0.303 1.1262-0.176 0.3514-0.42 0.6641-0.718 0.9197-0.298 0.2557-0.644 0.449-1.018 0.5686z"/>
   <path d="m98 53.06c-0.5627 0.192-1.1699 0.2124-1.7442 0.0587-0.5744-0.1537-1.0902-0.4746-1.4818-0.922-0.3917-0.4474-0.6415-1.0011-0.7179-1.5908-0.0763-0.5897 0.0243-1.1888 0.2891-1.7211 0.2648-0.5324 0.6818-0.9741 1.1981-1.2691 0.5163-0.2949 1.1086-0.4297 1.7017-0.3874 0.5931 0.0424 1.1602 0.26 1.6294 0.6253 0.4691 0.3653 0.8192 0.8618 1.0056 1.4264 0.13 0.3714 0.184 0.7649 0.159 1.1575s-0.1276 0.7763-0.3028 1.1285-0.419 0.6658-0.7172 0.9224c-0.2981 0.2566-0.6446 0.4509-1.019 0.5716z"/>
   <path d="m89.83 43.8c-0.5625 0.1886-1.1682 0.2062-1.7407 0.0506-0.5725-0.1557-1.086-0.4776-1.4756-0.925-0.3895-0.4474-0.6377-1.0003-0.7131-1.5887-0.0754-0.5885 0.0254-1.1861 0.2896-1.7173 0.2642-0.5311 0.6799-0.9721 1.1947-1.267 0.5147-0.2949 1.1054-0.4306 1.6972-0.3899 0.5919 0.0407 1.1584 0.256 1.6279 0.6186 0.4696 0.3626 0.821 0.8563 1.01 1.4187 0.1279 0.3714 0.1803 0.7646 0.1542 1.1566-0.0261 0.3919-0.1303 0.7747-0.3063 1.1259-0.1761 0.3511-0.4205 0.6636-0.7189 0.919-0.2984 0.2555-0.6449 0.4487-1.019 0.5685z"/>
   <path d="m87.08 27.16c-1.3002-0.5361-2.4806-1.326-3.4719-2.3235-0.9914-0.9976-1.7739-2.1828-2.3018-3.4863-0.528-1.3036-0.7907-2.6993-0.7729-4.1056s0.3158-2.7949 0.8766-4.0846c0.5483-1.2916 1.3455-2.4625 2.3463-3.4459 1.0008-0.98342 2.1855-1.7601 3.4865-2.2857 1.3009-0.52558 2.6926-0.78977 4.0957-0.77749 1.403 0.01228 2.7899 0.30079 4.0815 0.84906 1.2915 0.54827 2.4625 1.3456 3.4459 2.3464 0.9834 1.0008 1.7601 2.1855 2.2861 3.4865 0.525 1.3009 0.789 2.6926 0.777 4.0957-0.012 1.403-0.301 2.7899-0.849 4.0815-0.537 1.2993-1.3275 2.4785-2.3257 3.4685-0.84464 0.8377-1.8235 1.5258-2.8945 2.0364-0.19473 0.09283-0.3925 0.1798-0.59307 0.26073-1.3037 0.5261-2.6992 0.7869-4.105 0.7671-1.4057-0.0199-2.7934-0.32-4.0817-0.8827z"/>
   <path d="m9.4 54.72c-1.1269-0.4433-2.1516-1.1116-3.0116-1.9642-0.85995-0.8526-1.5371-1.8715-1.99-2.9946-0.45296-1.123-0.67224-2.3266-0.64446-3.5372 0.02779-1.2107 0.30206-2.4029 0.80607-3.504 0.44614-1.1267 1.1135-2.1526 1.9628-3.0171 0.84924-0.8645 1.8631-1.55 2.9817-2.0161 1.1186-0.4661 2.3193-0.7033 3.5311-0.6976s2.4102 0.2542 3.5244 0.7308c1.1455 0.4638 2.1861 1.1531 3.0599 2.027 0.8737 0.8739 1.5629 1.9146 2.0266 3.0601 0.4636 1.1456 0.6922 2.3726 0.6722 3.6083-0.02 1.2356-0.2882 2.4547-0.7887 3.5846-0.4698 1.12-1.1603 2.134-2.0302 2.9815-0.87 0.8476-1.9016 1.5113-3.0335 1.9518-1.1319 0.4404-2.3408 0.6485-3.5548 0.6119-1.214-0.0367-2.4082-0.3173-3.5115-0.8252z"/>
   <path d="m5.27 75.57c-1.0589-0.4303-2.0216-1.0668-2.8322-1.8727-0.81056-0.8058-1.4528-1.7647-1.8893-2.821-0.43651-1.0563-0.65859-2.1889-0.65332-3.3319 0.0052669-1.1429 0.23778-2.2734 0.684-3.3256 0.44622-1.0523 1.0973-2.0053 1.9152-2.8036 0.81795-0.7983 1.7865-1.4259 2.8493-1.8464 1.0628-0.4205 2.1986-0.6255 3.3413-0.603 1.1427 0.0226 2.2696 0.2721 3.315 0.7342 1.0589 0.4303 2.0216 1.0668 2.8322 1.8727 0.8105 0.8058 1.4527 1.7647 1.8892 2.821 0.4366 1.0563 0.6586 2.1889 0.6534 3.3318-0.0053 1.143-0.2378 2.2735-0.684 3.3257-0.4463 1.0523-1.0973 2.0053-1.9152 2.8036-0.818 0.7983-1.7865 1.4259-2.8493 1.8464s-2.1986 0.6255-3.3414 0.603c-1.1427-0.0226-2.2696-0.2721-3.315-0.7342z"/>
   <path d="m11.36 95c-1.2894-0.5467-2.3877-1.4635-3.156-2.6345-0.76828-1.1709-1.172-2.5435-1.1601-3.9439 0.01188-1.4005 0.43885-2.766 1.2269-3.9237 0.78804-1.1578 1.9017-2.0558 3.2002-2.5805s2.7235-0.6526 4.0946-0.3673c1.3712 0.2852 2.6269 0.9707 3.6085 1.9697 0.9815 0.9991 1.6446 2.2668 1.9056 3.6427 0.2609 1.376 0.1079 2.7985-0.4397 4.0875-0.3623 0.8562-0.8899 1.6325-1.5527 2.2846-0.6627 0.652-1.4475 1.1669-2.3095 1.5152s-1.7842 0.5232-2.7139 0.5147c-0.9296-0.0086-1.8485-0.2004-2.7039-0.5645z"/>
   <path d="m23.4 111.45c-0.7307-0.279-1.3959-0.706-1.9542-1.254-0.5582-0.548-0.9974-1.206-1.2902-1.931-0.2928-0.726-0.4329-1.504-0.4115-2.286 0.0214-0.781 0.2039-1.551 0.5359-2.259 0.2798-0.741 0.7071-1.417 1.256-1.988s1.208-1.024 1.9372-1.333c0.7293-0.308 1.5137-0.4653 2.3055-0.4618 0.7919 0.0035 1.5748 0.1678 2.3013 0.4828 0.7453 0.303 1.422 0.753 1.9898 1.323 0.5679 0.57 1.0153 1.248 1.3158 1.995 0.3004 0.746 0.4476 1.545 0.4329 2.349-0.0147 0.805-0.191 1.598-0.5185 2.333-0.308 0.727-0.7601 1.384-1.3289 1.932-0.5687 0.547-1.2425 0.974-1.9806 1.255-0.7382 0.28-1.5254 0.408-2.3143 0.376s-1.5632-0.224-2.2762-0.563z"/>
   <path d="m41.35 123.06c-1.0476-0.447-1.9389-1.194-2.561-2.148-0.622-0.954-0.9469-2.071-0.9332-3.21 0.0136-1.139 0.365-2.248 1.0098-3.187 0.6447-0.938 1.5537-1.664 2.6116-2.086 1.0579-0.421 2.2172-0.519 3.3308-0.281 1.1137 0.238 2.1315 0.802 2.9244 1.619 0.793 0.817 1.3254 1.852 1.5297 2.972 0.2043 1.121 0.0713 2.276-0.3821 3.321-0.6128 1.386-1.7447 2.476-3.1525 3.037s-2.9795 0.548-4.3775-0.037z"/>
   <path d="m84.73 122.85c-0.8769-0.367-1.6251-0.986-2.1498-1.778-0.5247-0.793-0.8022-1.724-0.7975-2.674 0.0048-0.951 0.2916-1.878 0.8242-2.666 0.5326-0.787 1.2869-1.398 2.1674-1.756s1.8475-0.447 2.7784-0.255 1.7838 0.656 2.4507 1.334c0.6668 0.677 1.1175 1.537 1.2949 2.471s0.0736 1.899-0.2983 2.774c-0.2392 0.584-0.5927 1.115-1.0398 1.561-0.447 0.446-0.9787 0.798-1.5637 1.035-0.585 0.238-1.2116 0.356-1.8429 0.348-0.6314-8e-3 -1.2548-0.142-1.8336-0.394z"/>
   <path d="m63 127.26c-0.9519-0.405-1.7625-1.082-2.3292-1.947-0.5668-0.866-0.8643-1.879-0.8549-2.914 0.0094-1.034 0.3252-2.042 0.9075-2.897s1.405-1.518 2.3641-1.905c0.959-0.387 2.0114-0.481 3.0239-0.271 1.0126 0.211 1.94 0.717 2.6649 1.455s1.2147 1.674 1.4076 2.69 0.0802 2.067-0.3239 3.019c-0.2619 0.638-0.6486 1.216-1.1375 1.702-0.4888 0.486-1.07 0.87-1.7091 1.128-0.6392 0.258-1.3235 0.386-2.0127 0.375-0.6893-0.01-1.3695-0.158-2.0007-0.435z"/>
   <path d="m103.45 109.72c-0.703-0.294-1.303-0.791-1.722-1.428-0.42-0.636-0.641-1.383-0.635-2.145s0.239-1.505 0.669-2.135c0.43-0.629 1.037-1.116 1.745-1.399s1.484-0.349 2.229-0.19 1.426 0.537 1.957 1.085c0.53 0.547 0.885 1.24 1.02 1.99 0.134 0.751 0.043 1.524-0.263 2.222-0.194 0.462-0.478 0.881-0.835 1.232-0.358 0.352-0.781 0.628-1.246 0.814-0.466 0.187-0.963 0.278-1.464 0.27s-0.996-0.115-1.455-0.316z"/>
   <path d="m63.73 20.42c-1.2945-0.4958-2.473-1.253-3.462-2.2243-0.9889-0.9714-1.7671-2.1362-2.286-3.4216-0.5188-1.2855-0.7673-2.6641-0.7298-4.0498 0.0375-1.3857 0.3602-2.7488 0.9478-4.0043 2.37-5.59 8.24-8.22 13.8-5.85 1.3163 0.53622 2.512 1.3305 3.5165 2.336 1.0046 1.0055 1.7977 2.202 2.3326 3.5188 0.535 1.3168 0.8009 2.7274 0.7822 4.1486-0.0188 1.4212-0.3218 2.8243-0.8913 4.1266-2.37 5.59-8.42 7.78-14 5.41z"/>
   <path d="m39.93 23.23c-1.2806-0.4917-2.4464-1.2415-3.4249-2.203s-1.7486-2.114-2.2626-3.3858c-0.514-1.2719-0.7608-2.6359-0.7251-4.0072s0.3531-2.7206 0.9326-3.964c2.35-5.52 8.16-8.13 13.69-5.78 1.3029 0.53239 2.4858 1.3206 3.4788 2.3179 0.9931 0.99737 1.7761 2.1837 2.3028 3.4888 0.5268 1.3051 0.7865 2.7026 0.7639 4.1099s-0.3271 2.7957-0.8955 4.0833c-2.34 5.52-8.33 7.69-13.86 5.34z"/>
   <path d="m21.27 36.48c-1.1959-0.4555-2.285-1.1529-3.1991-2.0486-0.914-0.8956-1.6334-1.9703-2.113-3.1568-0.4797-1.1864-0.7093-2.4591-0.6745-3.7384 0.0348-1.2792 0.3332-2.5376 0.8766-3.6962 2.19-5.16 7.61-7.59 12.77-5.4 1.2147 0.4975 2.3175 1.2332 3.2433 2.1638 0.9257 0.9306 1.6557 2.0371 2.1469 3.2544s0.7336 2.5206 0.713 3.8331c-0.0206 1.3124-0.3039 2.6075-0.8332 3.8087-2.19 5.15-7.78 7.17-12.93 5z"/>
   <path d="m114.19 92.17c-0.55-0.2268-1.021-0.6122-1.351-1.1072-0.331-0.4949-0.507-1.077-0.506-1.6722 2e-3 -0.5952 0.18-1.1766 0.512-1.6703 0.333-0.4936 0.805-0.8772 1.356-1.1019s1.157-0.2804 1.739-0.1599c0.583 0.1204 1.117 0.4115 1.534 0.8362 0.417 0.4248 0.698 0.9639 0.808 1.549 0.11 0.585 0.043 1.1894-0.192 1.7363-0.147 0.3638-0.366 0.6943-0.644 0.9722-0.277 0.2778-0.607 0.4973-0.971 0.6455-0.363 0.1482-0.753 0.2221-1.145 0.2173-0.393-0.0047-0.78-0.088-1.14-0.245z"/>
   <path d="m119.11 72.86c-0.551-0.227-1.022-0.6131-1.353-1.1091-0.331-0.4959-0.507-1.0793-0.505-1.6755s0.182-1.1782 0.516-1.6718c0.335-0.4937 0.809-0.8765 1.361-1.0996 0.553-0.2232 1.16-0.2765 1.743-0.1533 0.584 0.1233 1.117 0.4176 1.532 0.8453 0.416 0.4277 0.694 0.9695 0.8 1.5562s0.035 1.1917-0.204 1.7378c-0.148 0.3641-0.368 0.6947-0.647 0.972-0.279 0.2774-0.61 0.4958-0.975 0.6423s-0.755 0.2181-1.149 0.2104c-0.393-0.0076-0.78-0.0942-1.139-0.2547z"/>
   <path d="m109.76 36.75c-0.549-0.2299-1.017-0.6179-1.345-1.1146s-0.5-1.0797-0.496-1.6747c5e-3 -0.5951 0.186-1.1754 0.521-1.6672s0.809-0.8727 1.361-1.0945c0.553-0.2217 1.158-0.2742 1.74-0.1508 0.583 0.1234 1.115 0.4172 1.53 0.844 0.414 0.4268 0.693 0.9673 0.799 1.5527 0.107 0.5854 0.037 1.1894-0.2 1.7351-0.148 0.3641-0.368 0.6947-0.647 0.972-0.279 0.2774-0.61 0.4958-0.975 0.6423s-0.755 0.2181-1.149 0.2105c-0.393-0.0077-0.78-0.0943-1.139-0.2548z"/>
   <path d="m117.18 54.07c-0.55-0.2277-1.02-0.6139-1.35-1.1095-0.33-0.4957-0.505-1.0783-0.503-1.6737s0.182-1.1767 0.515-1.6699c0.334-0.4932 0.807-0.8759 1.359-1.0995 0.551-0.2235 1.157-0.2778 1.74-0.156 0.583 0.1219 1.116 0.4145 1.532 0.8405s0.696 0.9661 0.804 1.5517c0.108 0.5855 0.04 1.19-0.197 1.7364-0.146 0.3646-0.364 0.6961-0.642 0.9744-0.277 0.2783-0.608 0.4978-0.972 0.6453s-0.754 0.22-1.147 0.2132-0.78-0.0928-1.139-0.2529z"/>
  </g>
 </g>
</svg>
