<?xml version="1.0" encoding="UTF-8"?>
<svg width="123" height="128" fill="none" version="1.1" viewBox="0 0 123 128" xmlns="http://www.w3.org/2000/svg">
 <clipPath id="a">
  <path d="m0 0h639v128h-639z"/>
 </clipPath>
 <g transform="translate(.105 .00189)" clip-path="url(#a)">
  <g transform="matrix(.811 0 0 .811 11.7 12.1)" fill="#fff" stroke-width="1.24">
   <path d="m67.3 92.7c-0.761 0.564-1.67 0.889-2.62 0.934-0.946 0.0456-1.88-0.19-2.7-0.678-0.812-0.488-1.46-1.21-1.87-2.06s-0.545-1.81-0.406-2.75c0.14-0.937 0.554-1.81 1.19-2.51 0.637-0.701 1.47-1.2 2.39-1.43 0.919-0.229 1.89-0.181 2.78 0.139 0.892 0.32 1.67 0.897 2.23 1.66 0.748 1.02 1.06 2.3 0.876 3.56s-0.861 2.38-1.88 3.14z"/>
   <path d="m78.5 91.2c-0.609 0.45-1.34 0.71-2.09 0.746-0.756 0.0361-1.51-0.153-2.16-0.543-0.649-0.39-1.17-0.964-1.49-1.65-0.323-0.685-0.436-1.45-0.324-2.2 0.112-0.749 0.443-1.45 0.952-2.01 0.509-0.561 1.17-0.958 1.91-1.14 0.735-0.184 1.51-0.145 2.22 0.11 0.713 0.256 1.33 0.717 1.78 1.33 0.595 0.82 0.844 1.84 0.695 2.84-0.15 1-0.686 1.91-1.49 2.52z"/>
   <path d="m86.6 83.1c-0.609 0.45-1.34 0.71-2.09 0.746-0.756 0.0362-1.51-0.153-2.16-0.543-0.649-0.39-1.17-0.964-1.49-1.65-0.323-0.685-0.436-1.45-0.324-2.2 0.112-0.749 0.443-1.45 0.952-2.01 0.509-0.561 1.17-0.958 1.91-1.14 0.735-0.184 1.51-0.145 2.22 0.11 0.713 0.256 1.33 0.717 1.78 1.33 0.578 0.826 0.817 1.84 0.668 2.84-0.149 0.997-0.674 1.9-1.47 2.52z"/>
   <path d="m54.7 72.7c-0.684 0.545-1.47 0.944-2.32 1.17-0.845 0.227-1.73 0.278-2.59 0.15s-1.7-0.434-2.44-0.897c-0.743-0.463-1.38-1.07-1.88-1.79-0.557-0.691-0.968-1.49-1.21-2.34-0.24-0.855-0.303-1.75-0.186-2.63s0.412-1.73 0.866-2.49c0.454-0.763 1.06-1.43 1.78-1.95 0.715-0.543 1.53-0.938 2.4-1.16s1.78-0.27 2.66-0.137 1.74 0.441 2.51 0.908c0.767 0.467 1.43 1.08 1.96 1.81 0.534 0.708 0.918 1.52 1.13 2.38 0.212 0.862 0.246 1.76 0.101 2.63-0.145 0.875-0.466 1.71-0.944 2.46-0.478 0.747-1.1 1.39-1.84 1.89z"/>
   <path d="m63.9 59.4c-0.72 0.578-1.55 1-2.44 1.24-0.89 0.243-1.82 0.3-2.74 0.168-0.914-0.132-1.79-0.451-2.58-0.936-0.785-0.485-1.46-1.13-1.99-1.89-0.6-0.731-1.04-1.58-1.3-2.49-0.259-0.909-0.329-1.86-0.206-2.8 0.124-0.937 0.439-1.84 0.925-2.65 0.486-0.811 1.13-1.51 1.9-2.06 0.754-0.574 1.62-0.991 2.53-1.23 0.918-0.236 1.87-0.285 2.81-0.145 0.938 0.14 1.84 0.466 2.65 0.959 0.81 0.493 1.51 1.14 2.07 1.91 0.563 0.748 0.968 1.6 1.19 2.51 0.223 0.909 0.258 1.85 0.105 2.78-0.153 0.924-0.492 1.81-0.997 2.6s-1.16 1.47-1.94 1.99z"/>
   <path d="m57 86.4c-0.588 0.466-1.27 0.807-1.99 1-0.725 0.193-1.48 0.236-2.22 0.124s-1.45-0.375-2.09-0.773c-0.636-0.398-1.18-0.923-1.61-1.54-0.469-0.59-0.814-1.27-1.01-1.99-0.201-0.726-0.252-1.49-0.153-2.23 0.1-0.747 0.35-1.47 0.734-2.11 0.384-0.648 0.896-1.21 1.5-1.66 0.612-0.467 1.31-0.806 2.06-0.998 0.746-0.192 1.52-0.232 2.28-0.118 0.762 0.114 1.49 0.379 2.15 0.78 0.657 0.401 1.23 0.93 1.68 1.56 0.454 0.606 0.781 1.3 0.961 2.04 0.18 0.736 0.208 1.5 0.0838 2.25-0.124 0.748-0.399 1.46-0.807 2.1-0.408 0.639-0.941 1.19-1.57 1.61z"/>
   <path d="m88.2 71.6c-0.456 0.34-1 0.536-1.57 0.564-0.568 0.0285-1.13-0.112-1.62-0.404-0.488-0.292-0.878-0.723-1.12-1.24-0.243-0.514-0.327-1.09-0.243-1.65s0.334-1.09 0.716-1.51c0.383-0.42 0.882-0.717 1.43-0.854s1.13-0.106 1.67 0.0882 0.999 0.542 1.34 1c0.417 0.622 0.586 1.38 0.476 2.12-0.111 0.74-0.495 1.41-1.08 1.88z"/>
   <path d="m84.5 61.8c-0.38 0.285-0.837 0.45-1.31 0.475-0.474 0.0252-0.946-0.0911-1.35-0.334-0.408-0.243-0.735-0.602-0.94-1.03-0.204-0.429-0.277-0.909-0.208-1.38 0.0688-0.47 0.276-0.909 0.594-1.26 0.319-0.352 0.735-0.602 1.2-0.718 0.461-0.116 0.946-0.0923 1.39 0.0678 0.448 0.16 0.837 0.449 1.12 0.831 0.358 0.517 0.506 1.15 0.416 1.77-0.091 0.622-0.415 1.19-0.906 1.58z"/>
   <path d="m76.2 55.1c-0.382 0.282-0.838 0.445-1.31 0.468-0.474 0.0228-0.944-0.0954-1.35-0.34-0.407-0.244-0.732-0.604-0.935-1.03s-0.274-0.909-0.204-1.38c0.0698-0.469 0.277-0.908 0.596-1.26 0.319-0.352 0.734-0.601 1.19-0.716s0.944-0.0915 1.39 0.0683c0.447 0.16 0.836 0.448 1.12 0.829 0.36 0.518 0.508 1.15 0.416 1.78s-0.42 1.19-0.916 1.58z"/>
   <path d="m74.3 111c-0.714 0.261-1.47 0.373-2.23 0.33-0.759-0.044-1.5-0.242-2.18-0.583-0.68-0.341-1.28-0.817-1.77-1.4-0.489-0.582-0.854-1.26-1.07-1.99-0.278-0.725-0.405-1.5-0.374-2.27 0.0311-0.775 0.22-1.54 0.555-2.24 0.335-0.7 0.809-1.32 1.39-1.84 0.584-0.511 1.27-0.897 2.01-1.14 0.741-0.261 1.53-0.37 2.31-0.322s1.55 0.253 2.25 0.603c0.703 0.35 1.33 0.837 1.84 1.43 0.512 0.596 0.898 1.29 1.14 2.04 0.253 0.733 0.355 1.51 0.299 2.28-0.056 0.774-0.269 1.53-0.625 2.22s-0.849 1.3-1.45 1.79c-0.599 0.493-1.29 0.86-2.04 1.08z"/>
   <path d="m103 78.2c-0.563 0.192-1.17 0.212-1.74 0.0587-0.575-0.154-1.09-0.475-1.48-0.922-0.392-0.447-0.642-1-0.718-1.59-0.0763-0.59 0.0243-1.19 0.289-1.72s0.682-0.974 1.2-1.27c0.517-0.295 1.11-0.43 1.7-0.387 0.593 0.0424 1.16 0.26 1.63 0.625 0.47 0.365 0.82 0.862 1.01 1.43 0.131 0.371 0.186 0.765 0.162 1.16-0.024 0.393-0.127 0.777-0.302 1.13-0.175 0.353-0.42 0.666-0.719 0.923-0.298 0.256-0.646 0.45-1.02 0.57z"/>
   <path d="m89.5 104c-0.898 0.305-1.87 0.337-2.78 0.091-0.916-0.245-1.74-0.757-2.36-1.47-0.625-0.714-1.02-1.6-1.15-2.54-0.123-0.94 0.0363-1.9 0.457-2.75 0.421-0.85 1.08-1.56 1.91-2.03 0.822-0.472 1.77-0.69 2.71-0.626s1.85 0.408 2.6 0.987c0.75 0.579 1.31 1.37 1.61 2.27 0.21 0.594 0.298 1.22 0.26 1.85-0.038 0.629-0.202 1.24-0.481 1.81s-0.67 1.07-1.15 1.48c-0.477 0.412-1.03 0.724-1.63 0.918z"/>
   <path d="m99.2 91.8c-0.718 0.239-1.49 0.26-2.22 0.0595-0.73-0.2-1.38-0.612-1.88-1.18-0.496-0.572-0.812-1.28-0.907-2.03-0.0955-0.751 0.0336-1.51 0.371-2.19s0.868-1.24 1.52-1.62c0.657-0.376 1.41-0.55 2.16-0.498 0.755 0.0515 1.48 0.326 2.08 0.787 0.6 0.462 1.05 1.09 1.29 1.81 0.161 0.478 0.227 0.983 0.193 1.49-0.035 0.503-0.168 0.995-0.393 1.45-0.225 0.452-0.537 0.854-0.918 1.18s-0.823 0.583-1.3 0.742z"/>
   <path d="m56.1 110c-0.832 0.312-1.72 0.45-2.61 0.404-0.887-0.047-1.76-0.275-2.55-0.672-0.795-0.397-1.5-0.954-2.07-1.64-0.57-0.681-0.993-1.47-1.24-2.33-0.32-0.84-0.467-1.74-0.43-2.64 0.0369-0.898 0.256-1.78 0.644-2.59 0.388-0.811 0.937-1.53 1.61-2.13s1.47-1.04 2.32-1.32c0.858-0.3 1.77-0.426 2.67-0.37s1.79 0.293 2.61 0.696c0.814 0.403 1.54 0.965 2.13 1.65 0.594 0.688 1.04 1.49 1.33 2.35 0.292 0.85 0.408 1.75 0.342 2.65-0.066 0.896-0.313 1.77-0.726 2.57s-0.984 1.5-1.68 2.08c-0.694 0.571-1.5 0.996-2.36 1.25z"/>
   <path d="m41.4 99.3c-0.938 0.35-1.94 0.503-2.94 0.451-0.999-0.0527-1.98-0.31-2.87-0.756-0.896-0.446-1.69-1.07-2.33-1.84-0.644-0.766-1.12-1.66-1.41-2.62-0.36-0.948-0.523-1.96-0.48-2.97s0.291-2.01 0.73-2.92c0.438-0.914 1.06-1.73 1.82-2.4 0.763-0.668 1.65-1.17 2.62-1.49 0.968-0.339 1.99-0.48 3.02-0.415 1.02 0.0646 2.02 0.334 2.94 0.791 0.918 0.458 1.74 1.09 2.4 1.87s1.17 1.68 1.49 2.66c0.33 0.96 0.462 1.98 0.387 2.99-0.0749 1.01-0.355 2-0.822 2.9-0.468 0.9-1.11 1.7-1.9 2.34-0.785 0.643-1.69 1.12-2.67 1.4z"/>
   <path d="m34.3 80.5c-0.982 0.371-2.03 0.535-3.08 0.482-1.05-0.0537-2.08-0.324-3.01-0.794-0.939-0.47-1.77-1.13-2.44-1.94-0.672-0.807-1.17-1.74-1.46-2.75-0.376-0.99-0.546-2.05-0.502-3.1 0.0445-1.06 0.303-2.1 0.76-3.05s1.1-1.81 1.9-2.5 1.73-1.23 2.73-1.55c1.01-0.357 2.08-0.507 3.16-0.441 1.07 0.066 2.12 0.347 3.08 0.825s1.81 1.15 2.51 1.96 1.22 1.76 1.55 2.79c0.338 0.998 0.47 2.05 0.389 3.1-0.0811 1.05-0.374 2.07-0.86 3.01s-1.16 1.76-1.97 2.43c-0.814 0.668-1.76 1.16-2.77 1.46z"/>
   <path d="m37.1 60.5c-1.02 0.384-2.11 0.554-3.19 0.499s-2.15-0.334-3.13-0.82c-0.974-0.485-1.84-1.17-2.54-2s-1.22-1.8-1.53-2.85c-0.391-1.03-0.569-2.13-0.523-3.23 0.0462-1.1 0.316-2.18 0.791-3.17 0.476-0.993 1.15-1.88 1.98-2.6 0.829-0.725 1.8-1.27 2.84-1.61 1.05-0.369 2.17-0.524 3.28-0.455 1.11 0.0683 2.2 0.358 3.2 0.853 0.998 0.495 1.89 1.18 2.61 2.03s1.28 1.82 1.62 2.88c0.358 1.04 0.5 2.14 0.42 3.24s-0.384 2.17-0.891 3.14-1.21 1.84-2.06 2.54c-0.851 0.698-1.83 1.22-2.89 1.52z"/>
   <path d="m72.4 42.2c-1.05 0.395-2.18 0.568-3.3 0.509-1.12-0.059-2.22-0.349-3.23-0.852-1.01-0.503-1.9-1.21-2.62-2.07-0.723-0.863-1.26-1.87-1.58-2.95-0.404-1.07-0.587-2.2-0.539-3.34 0.0483-1.14 0.327-2.26 0.82-3.28 0.493-1.03 1.19-1.95 2.05-2.7s1.86-1.32 2.94-1.67c1.09-0.379 2.25-0.537 3.4-0.463 1.15 0.0737 2.28 0.377 3.31 0.892 1.03 0.515 1.95 1.23 2.71 2.11 0.752 0.876 1.32 1.89 1.67 2.99 0.369 1.08 0.515 2.22 0.43 3.36-0.0851 1.14-0.4 2.25-0.925 3.26-0.525 1.01-1.25 1.91-2.13 2.63-0.881 0.724-1.9 1.26-2.99 1.58z"/>
   <path d="m51.8 45.7c-1.04 0.39-2.15 0.562-3.25 0.506s-2.19-0.341-3.18-0.836c-0.993-0.495-1.87-1.19-2.59-2.04-0.713-0.85-1.24-1.84-1.56-2.9-0.399-1.05-0.581-2.17-0.534-3.29s0.321-2.22 0.807-3.24c0.485-1.01 1.17-1.92 2.02-2.66 0.845-0.741 1.83-1.3 2.9-1.65 1.07-0.374 2.21-0.53 3.35-0.458 1.14 0.0724 2.24 0.371 3.26 0.879 1.02 0.508 1.92 1.21 2.66 2.08 0.74 0.864 1.3 1.87 1.65 2.95 0.366 1.06 0.511 2.19 0.429 3.31s-0.392 2.21-0.909 3.21c-0.517 0.997-1.23 1.88-2.1 2.59-0.868 0.712-1.87 1.24-2.95 1.55z"/>
   <path d="m103 63.9c-0.563 0.193-1.17 0.214-1.75 0.0601-0.575-0.154-1.09-0.475-1.48-0.922s-0.642-1-0.718-1.59c-0.0761-0.59 0.025-1.19 0.291-1.72s0.684-0.974 1.2-1.27c0.518-0.294 1.11-0.428 1.7-0.385 0.594 0.0436 1.16 0.263 1.63 0.63 0.468 0.367 0.817 0.865 1 1.43 0.129 0.371 0.183 0.764 0.159 1.16-0.025 0.392-0.128 0.775-0.303 1.13-0.176 0.351-0.42 0.664-0.718 0.92-0.298 0.256-0.644 0.449-1.02 0.569z"/>
   <path d="m98 53.1c-0.563 0.192-1.17 0.212-1.74 0.0587-0.574-0.154-1.09-0.475-1.48-0.922-0.392-0.447-0.642-1-0.718-1.59-0.0763-0.59 0.0243-1.19 0.289-1.72 0.265-0.532 0.682-0.974 1.2-1.27 0.516-0.295 1.11-0.43 1.7-0.387 0.593 0.0424 1.16 0.26 1.63 0.625 0.469 0.365 0.819 0.862 1.01 1.43 0.13 0.371 0.184 0.765 0.159 1.16s-0.128 0.776-0.303 1.13-0.419 0.666-0.717 0.922c-0.298 0.257-0.645 0.451-1.02 0.572z"/>
   <path d="m89.8 43.8c-0.562 0.189-1.17 0.206-1.74 0.0506-0.572-0.156-1.09-0.478-1.48-0.925-0.39-0.447-0.638-1-0.713-1.59-0.0754-0.588 0.0254-1.19 0.29-1.72 0.264-0.531 0.68-0.972 1.19-1.27 0.515-0.295 1.11-0.431 1.7-0.39 0.592 0.0407 1.16 0.256 1.63 0.619 0.47 0.363 0.821 0.856 1.01 1.42 0.128 0.371 0.18 0.765 0.154 1.16-0.0261 0.392-0.13 0.775-0.306 1.13-0.176 0.351-0.42 0.664-0.719 0.919-0.298 0.256-0.645 0.449-1.02 0.568z"/>
   <path d="m87.1 27.2c-1.3-0.536-2.48-1.33-3.47-2.32-0.991-0.998-1.77-2.18-2.3-3.49-0.528-1.3-0.791-2.7-0.773-4.11s0.316-2.79 0.877-4.08c0.548-1.29 1.35-2.46 2.35-3.45 1-0.983 2.19-1.76 3.49-2.29 1.3-0.526 2.69-0.79 4.1-0.777 1.4 0.0123 2.79 0.301 4.08 0.849 1.29 0.548 2.46 1.35 3.45 2.35 0.983 1 1.76 2.19 2.29 3.49 0.525 1.3 0.789 2.69 0.777 4.1-0.012 1.4-0.301 2.79-0.849 4.08-0.537 1.3-1.33 2.48-2.33 3.47-0.845 0.838-1.82 1.53-2.89 2.04-0.195 0.0928-0.393 0.18-0.593 0.261-1.3 0.526-2.7 0.787-4.1 0.767-1.41-0.0199-2.79-0.32-4.08-0.883z"/>
   <path d="m9.4 54.7c-1.13-0.443-2.15-1.11-3.01-1.96-0.86-0.853-1.54-1.87-1.99-2.99-0.453-1.12-0.672-2.33-0.644-3.54 0.0278-1.21 0.302-2.4 0.806-3.5 0.446-1.13 1.11-2.15 1.96-3.02 0.849-0.864 1.86-1.55 2.98-2.02 1.12-0.466 2.32-0.703 3.53-0.698s2.41 0.254 3.52 0.731c1.15 0.464 2.19 1.15 3.06 2.03 0.874 0.874 1.56 1.91 2.03 3.06 0.464 1.15 0.692 2.37 0.672 3.61-0.02 1.24-0.288 2.45-0.789 3.58-0.47 1.12-1.16 2.13-2.03 2.98-0.87 0.848-1.9 1.51-3.03 1.95-1.13 0.44-2.34 0.648-3.55 0.612-1.21-0.0367-2.41-0.317-3.51-0.825z"/>
   <path d="m5.27 75.6c-1.06-0.43-2.02-1.07-2.83-1.87-0.811-0.806-1.45-1.76-1.89-2.82-0.437-1.06-0.659-2.19-0.653-3.33 0.00527-1.14 0.238-2.27 0.684-3.33 0.446-1.05 1.1-2.01 1.92-2.8 0.818-0.798 1.79-1.43 2.85-1.85 1.06-0.42 2.2-0.626 3.34-0.603 1.14 0.0226 2.27 0.272 3.31 0.734 1.06 0.43 2.02 1.07 2.83 1.87 0.81 0.806 1.45 1.76 1.89 2.82 0.437 1.06 0.659 2.19 0.653 3.33-0.0053 1.14-0.238 2.27-0.684 3.33-0.446 1.05-1.1 2.01-1.92 2.8-0.818 0.798-1.79 1.43-2.85 1.85s-2.2 0.626-3.34 0.603c-1.14-0.0226-2.27-0.272-3.31-0.734z"/>
   <path d="m11.4 95c-1.29-0.547-2.39-1.46-3.16-2.63-0.768-1.17-1.17-2.54-1.16-3.94 0.0119-1.4 0.439-2.77 1.23-3.92 0.788-1.16 1.9-2.06 3.2-2.58s2.72-0.653 4.09-0.367c1.37 0.285 2.63 0.971 3.61 1.97 0.982 0.999 1.64 2.27 1.91 3.64 0.261 1.38 0.108 2.8-0.44 4.09-0.362 0.856-0.89 1.63-1.55 2.28-0.663 0.652-1.45 1.17-2.31 1.52s-1.78 0.523-2.71 0.515c-0.93-0.0086-1.85-0.2-2.7-0.564z"/>
   <path d="m23.4 111c-0.731-0.279-1.4-0.706-1.95-1.25-0.558-0.548-0.997-1.21-1.29-1.93-0.293-0.726-0.433-1.5-0.412-2.29 0.0214-0.781 0.204-1.55 0.536-2.26 0.28-0.741 0.707-1.42 1.26-1.99s1.21-1.02 1.94-1.33c0.729-0.308 1.51-0.465 2.31-0.462 0.792 0.0035 1.57 0.168 2.3 0.483 0.745 0.303 1.42 0.753 1.99 1.32 0.568 0.57 1.02 1.25 1.32 2 0.3 0.746 0.448 1.54 0.433 2.35-0.0147 0.805-0.191 1.6-0.518 2.33-0.308 0.727-0.76 1.38-1.33 1.93-0.569 0.547-1.24 0.974-1.98 1.26-0.738 0.28-1.53 0.408-2.31 0.376s-1.56-0.224-2.28-0.563z"/>
   <path d="m41.4 123c-1.05-0.447-1.94-1.19-2.56-2.15-0.622-0.954-0.947-2.07-0.933-3.21 0.0136-1.14 0.365-2.25 1.01-3.19 0.645-0.938 1.55-1.66 2.61-2.09 1.06-0.421 2.22-0.519 3.33-0.281 1.11 0.238 2.13 0.802 2.92 1.62 0.793 0.817 1.33 1.85 1.53 2.97 0.204 1.12 0.0713 2.28-0.382 3.32-0.613 1.39-1.74 2.48-3.15 3.04s-2.98 0.548-4.38-0.037z"/>
   <path d="m84.7 123c-0.877-0.367-1.63-0.986-2.15-1.78-0.525-0.793-0.802-1.72-0.798-2.67 0.0048-0.951 0.292-1.88 0.824-2.67 0.533-0.787 1.29-1.4 2.17-1.76s1.85-0.447 2.78-0.255 1.78 0.656 2.45 1.33c0.667 0.677 1.12 1.54 1.29 2.47s0.0736 1.9-0.298 2.77c-0.239 0.584-0.593 1.12-1.04 1.56-0.447 0.446-0.979 0.798-1.56 1.04-0.585 0.238-1.21 0.356-1.84 0.348-0.631-8e-3 -1.25-0.142-1.83-0.394z"/>
   <path d="m63 127c-0.952-0.405-1.76-1.08-2.33-1.95-0.567-0.866-0.864-1.88-0.855-2.91 0.0094-1.03 0.325-2.04 0.908-2.9s1.4-1.52 2.36-1.9c0.959-0.387 2.01-0.481 3.02-0.271 1.01 0.211 1.94 0.717 2.66 1.46s1.21 1.67 1.41 2.69 0.0802 2.07-0.324 3.02c-0.262 0.638-0.649 1.22-1.14 1.7-0.489 0.486-1.07 0.87-1.71 1.13-0.639 0.258-1.32 0.386-2.01 0.375-0.689-0.01-1.37-0.158-2-0.435z"/>
   <path d="m103 110c-0.703-0.294-1.3-0.791-1.72-1.43-0.42-0.636-0.641-1.38-0.635-2.14s0.239-1.5 0.669-2.14c0.43-0.629 1.04-1.12 1.74-1.4s1.48-0.349 2.23-0.19 1.43 0.537 1.96 1.08c0.53 0.547 0.885 1.24 1.02 1.99 0.134 0.751 0.043 1.52-0.263 2.22-0.194 0.462-0.478 0.881-0.835 1.23-0.358 0.352-0.781 0.628-1.25 0.814-0.466 0.187-0.963 0.278-1.46 0.27s-0.996-0.115-1.46-0.316z"/>
   <path d="m63.7 20.4c-1.29-0.496-2.47-1.25-3.46-2.22-0.989-0.971-1.77-2.14-2.29-3.42-0.519-1.29-0.767-2.66-0.73-4.05 0.0375-1.39 0.36-2.75 0.948-4 2.37-5.59 8.24-8.22 13.8-5.85 1.32 0.536 2.51 1.33 3.52 2.34 1 1.01 1.8 2.2 2.33 3.52 0.535 1.32 0.801 2.73 0.782 4.15-0.0188 1.42-0.322 2.82-0.891 4.13-2.37 5.59-8.42 7.78-14 5.41z"/>
   <path d="m39.9 23.2c-1.28-0.492-2.45-1.24-3.42-2.2s-1.75-2.11-2.26-3.39c-0.514-1.27-0.761-2.64-0.725-4.01s0.353-2.72 0.933-3.96c2.35-5.52 8.16-8.13 13.7-5.78 1.3 0.532 2.49 1.32 3.48 2.32 0.993 0.997 1.78 2.18 2.3 3.49 0.527 1.31 0.786 2.7 0.764 4.11s-0.327 2.8-0.896 4.08c-2.34 5.52-8.33 7.69-13.9 5.34z"/>
   <path d="m21.3 36.5c-1.2-0.456-2.28-1.15-3.2-2.05-0.914-0.896-1.63-1.97-2.11-3.16-0.48-1.19-0.709-2.46-0.674-3.74 0.0348-1.28 0.333-2.54 0.877-3.7 2.19-5.16 7.61-7.59 12.8-5.4 1.21 0.498 2.32 1.23 3.24 2.16 0.926 0.931 1.66 2.04 2.15 3.25s0.734 2.52 0.713 3.83c-0.0206 1.31-0.304 2.61-0.833 3.81-2.19 5.15-7.78 7.17-12.9 5z"/>
   <path d="m114 92.2c-0.55-0.227-1.02-0.612-1.35-1.11-0.331-0.495-0.507-1.08-0.506-1.67 2e-3 -0.595 0.18-1.18 0.512-1.67 0.333-0.494 0.805-0.877 1.36-1.1s1.16-0.28 1.74-0.16c0.583 0.12 1.12 0.412 1.53 0.836 0.417 0.425 0.698 0.964 0.808 1.55 0.11 0.585 0.043 1.19-0.192 1.74-0.147 0.364-0.366 0.694-0.644 0.972-0.277 0.278-0.607 0.497-0.971 0.646-0.363 0.148-0.753 0.222-1.14 0.217-0.393-0.0047-0.78-0.088-1.14-0.245z"/>
   <path d="m119 72.9c-0.551-0.227-1.02-0.613-1.35-1.11-0.331-0.496-0.507-1.08-0.505-1.68s0.182-1.18 0.516-1.67c0.335-0.494 0.809-0.876 1.36-1.1 0.553-0.223 1.16-0.276 1.74-0.153 0.584 0.123 1.12 0.418 1.53 0.845 0.416 0.428 0.694 0.97 0.8 1.56s0.035 1.19-0.204 1.74c-0.148 0.364-0.368 0.695-0.647 0.972-0.279 0.277-0.61 0.496-0.975 0.642s-0.755 0.218-1.15 0.21c-0.393-0.0076-0.78-0.0942-1.14-0.255z"/>
   <path d="m110 36.8c-0.549-0.23-1.02-0.618-1.34-1.11s-0.5-1.08-0.496-1.67c5e-3 -0.595 0.186-1.18 0.521-1.67s0.809-0.873 1.36-1.09c0.553-0.222 1.16-0.274 1.74-0.151 0.583 0.123 1.12 0.417 1.53 0.844 0.414 0.427 0.693 0.967 0.799 1.55 0.107 0.585 0.037 1.19-0.2 1.74-0.148 0.364-0.368 0.695-0.647 0.972-0.279 0.277-0.61 0.496-0.975 0.642s-0.755 0.218-1.15 0.21c-0.393-0.0077-0.78-0.0943-1.14-0.255z"/>
   <path d="m117 54.1c-0.55-0.228-1.02-0.614-1.35-1.11-0.33-0.496-0.505-1.08-0.503-1.67s0.182-1.18 0.515-1.67c0.334-0.493 0.807-0.876 1.36-1.1 0.551-0.224 1.16-0.278 1.74-0.156 0.583 0.122 1.12 0.414 1.53 0.84s0.696 0.966 0.804 1.55c0.108 0.586 0.04 1.19-0.197 1.74-0.146 0.365-0.364 0.696-0.642 0.974-0.277 0.278-0.608 0.498-0.972 0.645s-0.754 0.22-1.15 0.213-0.78-0.0928-1.14-0.253z"/>
  </g>
 </g>
</svg>
